<svg width="784" height="158" viewBox="0 0 784 158" fill="none" xmlns="http://www.w3.org/2000/svg">
<path d="M576.478 24.2361H522V1H657V24.2361H603.654H602.654V25.2361V157H577.478V25.2361V24.2361H576.478Z" fill="black" stroke="white" stroke-width="2"/>
<path d="M161 24.2361V1H296V24.2361H187.185H186.185V25.2361V65.8333V66.8333H187.185H274.498V90.0694H187.185H186.185V91.0694V132.764V133.764H187.185H296V157H161.011V25.2361V24.2361H161Z" fill="black" stroke="white" stroke-width="2"/>
<path d="M427.542 78.4271L427.036 79.0548L427.542 79.6822L489.909 157H456.822L331.09 1H364.075L409.742 57.6142L410.52 58.5792L411.298 57.6142L456.822 1.17465L489.806 1.12377L427.542 78.4271Z" fill="black" stroke="white" stroke-width="2"/>
<path d="M331.096 157L383.229 92.59L399.714 112.98L364.109 157H331.096Z" fill="black" stroke="white" stroke-width="2"/>
<path d="M26.0872 33.7583V156.934H1V1H33.3801L158.912 157H127.451L27.8666 33.1318L26.0872 30.9185V33.7583Z" fill="black" stroke="white" stroke-width="2"/>
<path d="M658 149.973L658 149.964L658 149.955C657.985 148.323 658.556 146.943 659.749 145.762C660.943 144.578 662.339 144 664.01 144C665.599 144 666.979 144.572 668.18 145.762L668.18 145.762L668.185 145.767C669.393 146.948 669.98 148.329 670 149.962C669.981 151.088 669.702 152.094 669.159 152.988C668.576 153.937 667.852 154.659 666.949 155.181L666.94 155.186L666.931 155.191C666.049 155.726 665.082 156 664.01 156C662.338 156 660.943 155.422 659.749 154.239C658.561 153.062 657.985 151.666 658 149.973Z" fill="black" stroke="white" stroke-width="2"/>
<path d="M683.551 148.297L683.548 148.293C682.008 146.029 681.157 143.219 681.02 139.813H691.007C691.145 141.32 691.568 142.684 692.286 143.876C693.153 145.314 694.355 146.409 695.869 147.171L695.873 147.173C697.4 147.932 699.128 148.298 701.027 148.298C703.077 148.298 704.908 147.877 706.432 146.957C707.959 146.052 709.111 144.704 709.897 142.966L709.9 142.96C710.663 141.245 711.044 139.167 711.063 136.78H711.063V136.772V92H721V136.77C720.983 140.829 720.102 144.245 718.421 147.092C716.714 149.948 714.357 152.127 711.309 153.673C708.277 155.202 704.694 156 700.572 156C696.805 156 693.459 155.324 690.496 154.026C687.56 152.738 685.248 150.818 683.551 148.297Z" fill="black" stroke="white" stroke-width="2"/>
<path d="M782.373 129.953C781.296 127.826 779.834 126.008 777.987 124.5C776.143 122.991 774.041 121.737 771.721 120.755C769.401 119.756 766.97 118.974 764.465 118.392L782.373 129.953ZM782.373 129.953C783.451 132.079 784 134.57 784 137.442C784 141.313 783.013 144.712 781.02 147.657L782.373 129.953ZM752.15 99.3283L752.15 99.3283L752.143 99.3317C750.23 100.147 748.68 101.263 747.599 102.73L747.598 102.731C746.519 104.199 745.984 105.873 745.942 107.718L745.942 107.729V107.741C745.942 109.283 746.31 110.675 747.066 111.857C747.788 113.005 748.754 113.963 749.989 114.729C751.158 115.485 752.452 116.097 753.845 116.59L753.849 116.591C755.229 117.074 756.613 117.483 757.996 117.818C757.997 117.819 757.998 117.819 757.999 117.819L764.225 119.363L764.232 119.365L764.239 119.366C766.69 119.935 769.064 120.699 771.325 121.674L771.331 121.676C773.569 122.623 775.588 123.829 777.354 125.274L777.354 125.274C779.093 126.695 780.467 128.402 781.481 130.405L781.481 130.405C782.476 132.368 783 134.698 783 137.442C783 141.133 782.063 144.332 780.193 147.095C778.323 149.843 775.613 152.022 771.994 153.612C768.404 155.18 764.017 156 758.783 156C753.73 156 749.373 155.216 745.742 153.68L745.737 153.678C742.096 152.162 739.291 149.949 737.272 147.065L737.272 147.065C735.43 144.434 734.348 141.246 734.058 137.478H743.942C744.234 139.552 744.993 141.348 746.2 142.849L746.2 142.849L746.208 142.859C747.592 144.536 749.388 145.757 751.54 146.574L751.54 146.574L751.55 146.578C753.703 147.369 756.086 147.766 758.692 147.766C761.406 147.766 763.836 147.351 765.964 146.516L765.967 146.515C768.068 145.682 769.777 144.499 771.022 142.919C772.305 141.332 772.938 139.457 772.958 137.36L772.958 137.35L772.958 137.34C772.938 135.41 772.359 133.733 771.193 132.402L771.193 132.402L771.187 132.395C770.062 131.134 768.541 130.113 766.67 129.307L766.667 129.306C764.822 128.518 762.687 127.812 760.271 127.202C760.271 127.202 760.271 127.202 760.27 127.202L752.709 125.276C747.352 123.904 743.183 121.837 740.174 119.122L740.172 119.121C737.231 116.48 735.753 112.983 735.753 108.486C735.753 104.789 736.756 101.583 738.76 98.8424L738.76 98.8424L738.763 98.8385C740.765 96.0724 743.523 93.9059 747.054 92.351L747.056 92.35C750.599 90.7797 754.624 90 759.148 90C763.751 90 767.731 90.7808 771.139 92.3447L771.143 92.3463C774.561 93.8987 777.212 96.0445 779.125 98.756L779.126 98.7564C780.848 101.195 781.832 103.953 782.045 107.068H772.368C771.884 104.39 770.505 102.233 768.275 100.669C765.813 98.938 762.69 98.1246 758.983 98.1246C756.383 98.1246 754.091 98.5209 752.15 99.3283Z" fill="black" stroke="white" stroke-width="2"/>
</svg>
