<svg width="762" height="661" viewBox="0 0 762 661" fill="none" xmlns="http://www.w3.org/2000/svg">
<path d="M576.658 535.031L661.654 393.545L761.921 226.741L567.132 223.22L402.144 220.366C361.81 215.764 320.986 222.361 284.154 239.434C247.322 256.507 215.905 283.395 193.349 317.148C170.792 350.902 157.97 390.216 156.287 430.778C154.605 471.34 164.127 511.581 183.81 547.087C203.493 582.592 232.576 611.99 267.868 632.055C303.159 652.119 343.296 662.075 383.873 660.83C424.451 659.584 463.901 647.186 497.895 624.994C531.89 602.803 559.115 571.677 576.584 535.031H576.658Z" fill="#001489"/>
<path d="M559.236 314.666L479.207 170.51L384.797 0L284.492 166.804L199.534 308.401C175.351 341.025 160.625 379.681 156.972 420.126C153.319 460.57 160.881 501.239 178.828 537.668C196.774 574.096 224.411 604.876 258.704 626.627C292.997 648.378 332.62 660.259 373.223 660.966C413.826 661.674 453.839 651.18 488.868 630.637C523.898 610.094 552.59 580.296 571.795 544.515C590.999 508.733 599.973 468.352 597.732 427.805C595.49 387.258 582.119 348.112 559.088 314.666H559.236Z" fill="#001489"/>
<path d="M174.477 527.989L94.4479 383.685L0 213.36L194.715 216.734L359.74 219.588C400.22 216.391 440.798 224.408 477.021 242.757C513.245 261.106 543.714 289.079 565.084 323.607C586.455 358.134 597.901 397.881 598.168 438.486C598.434 479.091 587.509 518.985 566.593 553.79C545.677 588.594 515.577 616.964 479.598 635.787C443.618 654.61 403.148 663.157 362.63 660.492C322.111 657.826 283.11 644.05 249.906 620.677C216.702 597.303 190.579 565.234 174.402 527.989H174.477Z" fill="#001489"/>
</svg>
